<?xml version="1.0" standalone="no"?>
<!DOCTYPE svg PUBLIC "-//W3C//DTD SVG 20010904//EN"
 "http://www.w3.org/TR/2001/REC-SVG-20010904/DTD/svg10.dtd">
<svg version="1.0" xmlns="http://www.w3.org/2000/svg"
 width="84.000000pt" height="84.000000pt" viewBox="0 0 84.000000 84.000000"
 preserveAspectRatio="xMidYMid meet">
<metadata>
Created by potrace 1.11, written by Peter Selinger 2001-2013
</metadata>
<g transform="translate(0.000000,84.000000) scale(0.100000,-0.100000)"
fill="#000000" stroke="none">
<path d="M140 827 c-46 -15 -106 -77 -119 -124 -7 -22 -11 -143 -11 -293 1
-246 1 -257 24 -300 13 -26 41 -58 65 -75 l43 -30 263 -2 c193 -2 271 1 293
10 51 21 90 57 111 103 20 41 21 62 21 303 0 287 -3 303 -65 365 -19 19 -52
40 -72 45 -51 14 -507 12 -553 -2z"/>
</g>
</svg>
