<svg width="82" height="25" viewBox="0 0 82 25" fill="none" xmlns="http://www.w3.org/2000/svg">
<g filter="url(#filter0_d)">
<path d="M12.02 19.162C10.784 19.162 9.71 18.898 8.798 18.37C7.898 17.842 7.202 17.086 6.71 16.102C6.218 15.118 5.972 13.966 5.972 12.646C5.972 11.326 6.212 10.18 6.692 9.208C7.184 8.224 7.886 7.468 8.798 6.94C9.71 6.412 10.784 6.148 12.02 6.148C13.256 6.148 14.324 6.412 15.224 6.94C16.136 7.468 16.832 8.224 17.312 9.208C17.804 10.18 18.05 11.326 18.05 12.646C18.05 13.966 17.804 15.118 17.312 16.102C16.82 17.086 16.118 17.842 15.206 18.37C14.306 18.898 13.244 19.162 12.02 19.162ZM12.02 17.308C13.184 17.308 14.09 16.906 14.738 16.102C15.398 15.298 15.728 14.146 15.728 12.646C15.728 11.146 15.398 10 14.738 9.208C14.09 8.404 13.184 8.002 12.02 8.002C10.844 8.002 9.926 8.404 9.266 9.208C8.618 10 8.294 11.146 8.294 12.646C8.294 14.146 8.618 15.298 9.266 16.102C9.926 16.906 10.844 17.308 12.02 17.308ZM24.3733 19.144C22.8973 19.144 21.7813 18.664 21.0253 17.704C20.2693 16.744 19.8913 15.448 19.8913 13.816C19.8913 12.496 20.0173 11.404 20.2693 10.54C20.5333 9.664 20.9233 8.962 21.4393 8.434C21.9673 7.894 22.6513 7.456 23.4913 7.12C23.9473 6.928 24.5233 6.73 25.2193 6.526C25.9993 6.286 26.5753 6.1 26.9473 5.968C27.1513 5.908 27.3133 5.878 27.4333 5.878C27.6973 5.878 27.9073 5.956 28.0633 6.112C28.2193 6.268 28.2973 6.46 28.2973 6.688C28.2973 6.856 28.2373 7.03 28.1173 7.21C28.0093 7.378 27.8413 7.522 27.6133 7.642C27.3253 7.798 26.9773 7.948 26.5693 8.092C26.1733 8.224 25.7773 8.35 25.3813 8.47C24.8773 8.614 24.4993 8.728 24.2473 8.812C23.3593 9.1 22.7053 9.526 22.2853 10.09C21.8773 10.654 21.6493 11.476 21.6013 12.556C21.8653 11.872 22.3033 11.326 22.9153 10.918C23.5393 10.51 24.2353 10.306 25.0033 10.306C26.2393 10.306 27.1993 10.684 27.8833 11.44C28.5673 12.196 28.9093 13.264 28.9093 14.644C28.9093 15.496 28.7233 16.264 28.3513 16.948C27.9793 17.632 27.4513 18.172 26.7673 18.568C26.0833 18.952 25.2853 19.144 24.3733 19.144ZM24.3733 17.398C25.1173 17.398 25.6813 17.146 26.0653 16.642C26.4613 16.126 26.6593 15.484 26.6593 14.716C26.6593 13.84 26.4673 13.186 26.0833 12.754C25.6993 12.31 25.1773 12.088 24.5173 12.088C23.7853 12.088 23.2153 12.334 22.8073 12.826C22.4113 13.306 22.2133 13.942 22.2133 14.734C22.2133 15.538 22.3873 16.186 22.7353 16.678C23.0953 17.158 23.6413 17.398 24.3733 17.398ZM34.7758 19.144C33.8758 19.144 33.0838 18.958 32.3998 18.586C31.7278 18.214 31.2058 17.68 30.8338 16.984C30.4618 16.288 30.2758 15.478 30.2758 14.554C30.2758 13.63 30.4618 12.826 30.8338 12.142C31.2058 11.446 31.7278 10.912 32.3998 10.54C33.0838 10.168 33.8758 9.982 34.7758 9.982C35.6758 9.982 36.4618 10.168 37.1338 10.54C37.8178 10.912 38.3398 11.446 38.6998 12.142C39.0718 12.826 39.2578 13.63 39.2578 14.554C39.2578 15.478 39.0718 16.288 38.6998 16.984C38.3398 17.68 37.8178 18.214 37.1338 18.586C36.4618 18.958 35.6758 19.144 34.7758 19.144ZM34.7578 17.398C35.4898 17.398 36.0478 17.158 36.4318 16.678C36.8158 16.198 37.0078 15.49 37.0078 14.554C37.0078 13.63 36.8158 12.928 36.4318 12.448C36.0478 11.956 35.4958 11.71 34.7758 11.71C34.0558 11.71 33.4978 11.956 33.1018 12.448C32.7178 12.928 32.5258 13.63 32.5258 14.554C32.5258 15.49 32.7178 16.198 33.1018 16.678C33.4858 17.158 34.0378 17.398 34.7578 17.398ZM54.588 10.018C54.936 10.018 55.212 10.114 55.416 10.306C55.62 10.498 55.722 10.756 55.722 11.08V18.064C55.722 18.364 55.626 18.616 55.434 18.82C55.242 19.012 54.996 19.108 54.696 19.108C54.396 19.108 54.144 19.012 53.94 18.82C53.748 18.616 53.652 18.364 53.652 18.064L53.67 13.528L51.87 16.876C51.762 17.068 51.618 17.224 51.438 17.344C51.258 17.452 51.06 17.506 50.844 17.506C50.388 17.506 50.04 17.296 49.8 16.876L48 13.528L48.018 18.064C48.018 18.364 47.916 18.616 47.712 18.82C47.52 19.012 47.274 19.108 46.974 19.108C46.674 19.108 46.428 19.012 46.236 18.82C46.044 18.616 45.948 18.364 45.948 18.064V11.152C45.948 10.804 46.038 10.528 46.218 10.324C46.41 10.12 46.674 10.018 47.01 10.018C47.334 10.018 47.604 10.072 47.82 10.18C48.036 10.276 48.228 10.486 48.396 10.81L50.844 15.436L53.202 10.954C53.394 10.606 53.586 10.366 53.778 10.234C53.982 10.09 54.252 10.018 54.588 10.018ZM59.0699 19.108C58.7339 19.108 58.4639 19.012 58.2599 18.82C58.0559 18.628 57.9539 18.37 57.9539 18.046V11.08C57.9539 10.756 58.0559 10.498 58.2599 10.306C58.4639 10.114 58.7339 10.018 59.0699 10.018C59.4179 10.018 59.6939 10.114 59.8979 10.306C60.1019 10.498 60.2039 10.756 60.2039 11.08V13.618H64.0559V11.08C64.0559 10.756 64.1579 10.498 64.3619 10.306C64.5659 10.114 64.8359 10.018 65.1719 10.018C65.5199 10.018 65.7959 10.114 65.9999 10.306C66.2039 10.498 66.3059 10.756 66.3059 11.08L66.3239 17.956C66.3239 18.304 66.2159 18.586 65.9999 18.802C65.7959 19.006 65.5259 19.108 65.1899 19.108C64.8419 19.108 64.5659 19.006 64.3619 18.802C64.1579 18.586 64.0559 18.304 64.0559 17.956V15.364H60.2039V18.046C60.2039 18.37 60.1019 18.628 59.8979 18.82C59.6939 19.012 59.4179 19.108 59.0699 19.108ZM75.5735 16.588C75.7775 16.588 75.9395 16.666 76.0595 16.822C76.1915 16.978 76.2575 17.188 76.2575 17.452C76.2575 17.824 76.0355 18.136 75.5915 18.388C75.1835 18.616 74.7215 18.802 74.2055 18.946C73.6895 19.078 73.1975 19.144 72.7295 19.144C71.3135 19.144 70.1915 18.736 69.3635 17.92C68.5355 17.104 68.1215 15.988 68.1215 14.572C68.1215 13.672 68.3015 12.874 68.6615 12.178C69.0215 11.482 69.5255 10.942 70.1735 10.558C70.8335 10.174 71.5775 9.982 72.4055 9.982C73.1975 9.982 73.8875 10.156 74.4755 10.504C75.0635 10.852 75.5195 11.344 75.8435 11.98C76.1675 12.616 76.3295 13.366 76.3295 14.23C76.3295 14.746 76.1015 15.004 75.6455 15.004H70.3355C70.4075 15.832 70.6415 16.444 71.0375 16.84C71.4335 17.224 72.0095 17.416 72.7655 17.416C73.1495 17.416 73.4855 17.368 73.7735 17.272C74.0735 17.176 74.4095 17.044 74.7815 16.876C75.1415 16.684 75.4055 16.588 75.5735 16.588ZM72.4595 11.566C71.8475 11.566 71.3555 11.758 70.9835 12.142C70.6235 12.526 70.4075 13.078 70.3355 13.798H74.4035C74.3795 13.066 74.1995 12.514 73.8635 12.142C73.5275 11.758 73.0595 11.566 72.4595 11.566Z" fill="white"/>
</g>
<defs>
<filter id="filter0_d" x="0.972" y="0.877991" width="80.3575" height="23.284" filterUnits="userSpaceOnUse" color-interpolation-filters="sRGB">
<feFlood flood-opacity="0" result="BackgroundImageFix"/>
<feColorMatrix in="SourceAlpha" type="matrix" values="0 0 0 0 0 0 0 0 0 0 0 0 0 0 0 0 0 0 127 0"/>
<feOffset/>
<feGaussianBlur stdDeviation="2.5"/>
<feColorMatrix type="matrix" values="0 0 0 0 0.25657 0 0 0 0 0.816667 0 0 0 0 0.749455 0 0 0 1 0"/>
<feBlend mode="normal" in2="BackgroundImageFix" result="effect1_dropShadow"/>
<feBlend mode="normal" in="SourceGraphic" in2="effect1_dropShadow" result="shape"/>
</filter>
</defs>
</svg>
