<svg width="91" height="24" viewBox="0 0 91 24" fill="none" xmlns="http://www.w3.org/2000/svg">
<g filter="url(#filter0_d)">
<path d="M6.502 18.108C6.154 18.108 5.878 18.006 5.674 17.802C5.47 17.586 5.368 17.298 5.368 16.938V6.354C5.368 6.006 5.47 5.73 5.674 5.526C5.89 5.31 6.166 5.202 6.502 5.202C6.85 5.202 7.126 5.31 7.33 5.526C7.546 5.73 7.654 6.006 7.654 6.354V10.62H9.202L13.234 5.652C13.474 5.364 13.756 5.22 14.08 5.22C14.344 5.22 14.572 5.316 14.764 5.508C14.968 5.7 15.07 5.928 15.07 6.192C15.07 6.444 14.98 6.678 14.8 6.894L11.38 11.052C11.812 11.208 12.16 11.388 12.424 11.592C12.7 11.796 12.946 12.054 13.162 12.366C13.39 12.678 13.684 13.146 14.044 13.77L15.502 16.38C15.622 16.584 15.682 16.794 15.682 17.01C15.682 17.31 15.568 17.568 15.34 17.784C15.124 17.988 14.872 18.09 14.584 18.09C14.188 18.09 13.87 17.88 13.63 17.46L11.794 14.184C11.446 13.56 11.098 13.122 10.75 12.87C10.402 12.618 9.898 12.492 9.238 12.492H7.654V16.938C7.654 17.286 7.546 17.568 7.33 17.784C7.126 18 6.85 18.108 6.502 18.108ZM21.4711 18.144C20.5711 18.144 19.7791 17.958 19.0951 17.586C18.4231 17.214 17.9011 16.68 17.5291 15.984C17.1571 15.288 16.9711 14.478 16.9711 13.554C16.9711 12.63 17.1571 11.826 17.5291 11.142C17.9011 10.446 18.4231 9.912 19.0951 9.54C19.7791 9.168 20.5711 8.982 21.4711 8.982C22.3711 8.982 23.1571 9.168 23.8291 9.54C24.5131 9.912 25.0351 10.446 25.3951 11.142C25.7671 11.826 25.9531 12.63 25.9531 13.554C25.9531 14.478 25.7671 15.288 25.3951 15.984C25.0351 16.68 24.5131 17.214 23.8291 17.586C23.1571 17.958 22.3711 18.144 21.4711 18.144ZM21.4531 16.398C22.1851 16.398 22.7431 16.158 23.1271 15.678C23.5111 15.198 23.7031 14.49 23.7031 13.554C23.7031 12.63 23.5111 11.928 23.1271 11.448C22.7431 10.956 22.1911 10.71 21.4711 10.71C20.7511 10.71 20.1931 10.956 19.7971 11.448C19.4131 11.928 19.2211 12.63 19.2211 13.554C19.2211 14.49 19.4131 15.198 19.7971 15.678C20.1811 16.158 20.7331 16.398 21.4531 16.398ZM28.8726 18.108C28.5366 18.108 28.2666 18.012 28.0626 17.82C27.8586 17.628 27.7566 17.37 27.7566 17.046V10.08C27.7566 9.756 27.8586 9.498 28.0626 9.306C28.2666 9.114 28.5366 9.018 28.8726 9.018C29.2206 9.018 29.4966 9.114 29.7006 9.306C29.9046 9.498 30.0066 9.756 30.0066 10.08V12.618H33.8586V10.08C33.8586 9.756 33.9606 9.498 34.1646 9.306C34.3686 9.114 34.6386 9.018 34.9746 9.018C35.3226 9.018 35.5986 9.114 35.8026 9.306C36.0066 9.498 36.1086 9.756 36.1086 10.08L36.1266 16.956C36.1266 17.304 36.0186 17.586 35.8026 17.802C35.5986 18.006 35.3286 18.108 34.9926 18.108C34.6446 18.108 34.3686 18.006 34.1646 17.802C33.9606 17.586 33.8586 17.304 33.8586 16.956V14.364H30.0066V17.046C30.0066 17.37 29.9046 17.628 29.7006 17.82C29.4966 18.012 29.2206 18.108 28.8726 18.108ZM41.5422 18.108C41.1942 18.108 40.9182 18.012 40.7142 17.82C40.5102 17.628 40.4082 17.37 40.4082 17.046V10.89H38.3382C38.0742 10.89 37.8582 10.812 37.6902 10.656C37.5342 10.5 37.4562 10.296 37.4562 10.044C37.4562 9.792 37.5342 9.588 37.6902 9.432C37.8582 9.276 38.0742 9.198 38.3382 9.198H44.7282C44.9922 9.198 45.2022 9.276 45.3582 9.432C45.5262 9.588 45.6102 9.792 45.6102 10.044C45.6102 10.296 45.5262 10.5 45.3582 10.656C45.2022 10.812 44.9922 10.89 44.7282 10.89H42.6582V17.046C42.6582 17.37 42.5562 17.628 42.3522 17.82C42.1482 18.012 41.8782 18.108 41.5422 18.108ZM50.6813 8.982C51.9053 8.982 52.8113 9.288 53.3993 9.9C53.9993 10.5 54.2993 11.418 54.2993 12.654V17.046C54.2993 17.37 54.2033 17.628 54.0113 17.82C53.8193 18 53.5553 18.09 53.2193 18.09C52.9073 18.09 52.6493 17.994 52.4453 17.802C52.2533 17.61 52.1573 17.358 52.1573 17.046V16.65C51.9533 17.118 51.6293 17.484 51.1853 17.748C50.7533 18.012 50.2493 18.144 49.6733 18.144C49.0853 18.144 48.5513 18.024 48.0713 17.784C47.5913 17.544 47.2133 17.214 46.9373 16.794C46.6613 16.374 46.5233 15.906 46.5233 15.39C46.5233 14.742 46.6853 14.232 47.0093 13.86C47.3453 13.488 47.8853 13.218 48.6293 13.05C49.3733 12.882 50.3993 12.798 51.7073 12.798H52.1573V12.384C52.1573 11.796 52.0313 11.37 51.7793 11.106C51.5273 10.83 51.1193 10.692 50.5553 10.692C50.2073 10.692 49.8533 10.746 49.4933 10.854C49.1333 10.95 48.7073 11.094 48.2153 11.286C47.9033 11.442 47.6753 11.52 47.5313 11.52C47.3153 11.52 47.1353 11.442 46.9913 11.286C46.8593 11.13 46.7933 10.926 46.7933 10.674C46.7933 10.47 46.8413 10.296 46.9373 10.152C47.0453 9.996 47.2193 9.852 47.4593 9.72C47.8793 9.492 48.3773 9.312 48.9533 9.18C49.5413 9.048 50.1173 8.982 50.6813 8.982ZM50.1233 16.524C50.7233 16.524 51.2093 16.326 51.5813 15.93C51.9653 15.522 52.1573 15 52.1573 14.364V13.986H51.8333C51.0293 13.986 50.4053 14.022 49.9613 14.094C49.5173 14.166 49.1993 14.292 49.0073 14.472C48.8153 14.652 48.7193 14.898 48.7193 15.21C48.7193 15.594 48.8513 15.912 49.1153 16.164C49.3913 16.404 49.7273 16.524 50.1233 16.524ZM61.734 13.176C62.154 13.332 62.49 13.542 62.742 13.806C63.006 14.07 63.312 14.514 63.66 15.138L64.452 16.506C64.56 16.698 64.614 16.884 64.614 17.064C64.614 17.352 64.5 17.598 64.272 17.802C64.056 17.994 63.798 18.09 63.498 18.09C63.09 18.09 62.778 17.898 62.562 17.514L61.428 15.498C61.176 15.078 60.93 14.784 60.69 14.616C60.45 14.448 60.102 14.364 59.646 14.364H58.944V17.028C58.944 17.364 58.842 17.628 58.638 17.82C58.434 18.012 58.158 18.108 57.81 18.108C57.462 18.108 57.186 18.012 56.982 17.82C56.79 17.628 56.694 17.364 56.694 17.028V10.08C56.694 9.756 56.796 9.498 57 9.306C57.204 9.114 57.474 9.018 57.81 9.018C58.158 9.018 58.434 9.114 58.638 9.306C58.842 9.498 58.944 9.756 58.944 10.08V12.69H59.754L62.328 9.486C62.568 9.174 62.85 9.018 63.174 9.018C63.426 9.018 63.642 9.108 63.822 9.288C64.002 9.468 64.092 9.684 64.092 9.936C64.092 10.188 63.996 10.434 63.804 10.674L61.734 13.176ZM69.5442 18.108C69.1962 18.108 68.9202 18.012 68.7162 17.82C68.5122 17.628 68.4102 17.37 68.4102 17.046V10.89H66.3402C66.0762 10.89 65.8602 10.812 65.6922 10.656C65.5362 10.5 65.4582 10.296 65.4582 10.044C65.4582 9.792 65.5362 9.588 65.6922 9.432C65.8602 9.276 66.0762 9.198 66.3402 9.198H72.7302C72.9942 9.198 73.2042 9.276 73.3602 9.432C73.5282 9.588 73.6122 9.792 73.6122 10.044C73.6122 10.296 73.5282 10.5 73.3602 10.656C73.2042 10.812 72.9942 10.89 72.7302 10.89H70.6602V17.046C70.6602 17.37 70.5582 17.628 70.3542 17.82C70.1502 18.012 69.8802 18.108 69.5442 18.108ZM76.0703 18C75.7223 18.012 75.4463 17.922 75.2423 17.73C75.0383 17.538 74.9363 17.274 74.9363 16.938V10.08C74.9363 9.756 75.0383 9.498 75.2423 9.306C75.4463 9.114 75.7163 9.018 76.0523 9.018C76.4003 9.018 76.6763 9.114 76.8803 9.306C77.0843 9.498 77.1863 9.756 77.1863 10.08V12.114H78.5003C79.5803 12.114 80.4203 12.336 81.0203 12.78C81.6203 13.212 81.9203 13.938 81.9203 14.958C81.9203 15.606 81.7523 16.164 81.4163 16.632C81.0923 17.088 80.6603 17.43 80.1203 17.658C79.5923 17.886 79.0223 18 78.4103 18H76.0703ZM84.1703 18.108C83.8223 18.108 83.5463 18.012 83.3423 17.82C83.1383 17.628 83.0363 17.37 83.0363 17.046V10.08C83.0363 9.756 83.1383 9.498 83.3423 9.306C83.5463 9.114 83.8223 9.018 84.1703 9.018C84.5063 9.018 84.7763 9.114 84.9803 9.306C85.1843 9.498 85.2863 9.756 85.2863 10.08V17.046C85.2863 17.37 85.1843 17.628 84.9803 17.82C84.7763 18.012 84.5063 18.108 84.1703 18.108ZM77.9423 16.452C78.4223 16.452 78.8363 16.338 79.1843 16.11C79.5323 15.882 79.7063 15.516 79.7063 15.012C79.7063 14.472 79.5443 14.112 79.2203 13.932C78.9083 13.752 78.4823 13.662 77.9423 13.662H77.1503V16.452H77.9423Z" fill="white"/>
</g>
<defs>
<filter id="filter0_d" x="0.368011" y="0.202026" width="89.9183" height="22.942" filterUnits="userSpaceOnUse" color-interpolation-filters="sRGB">
<feFlood flood-opacity="0" result="BackgroundImageFix"/>
<feColorMatrix in="SourceAlpha" type="matrix" values="0 0 0 0 0 0 0 0 0 0 0 0 0 0 0 0 0 0 127 0"/>
<feOffset/>
<feGaussianBlur stdDeviation="2.5"/>
<feColorMatrix type="matrix" values="0 0 0 0 0.25657 0 0 0 0 0.816667 0 0 0 0 0.749455 0 0 0 1 0"/>
<feBlend mode="normal" in2="BackgroundImageFix" result="effect1_dropShadow"/>
<feBlend mode="normal" in="SourceGraphic" in2="effect1_dropShadow" result="shape"/>
</filter>
</defs>
</svg>
