<svg width="106" height="27" viewBox="0 0 106 27" fill="none" xmlns="http://www.w3.org/2000/svg">
<g filter="url(#filter0_d)">
<path d="M6.502 18.108C6.154 18.108 5.878 18.006 5.674 17.802C5.47 17.586 5.368 17.298 5.368 16.938V6.444C5.368 6.108 5.476 5.838 5.692 5.634C5.908 5.418 6.184 5.31 6.52 5.31H15.016C15.352 5.31 15.622 5.418 15.826 5.634C16.042 5.838 16.15 6.108 16.15 6.444V16.956C16.15 17.304 16.042 17.586 15.826 17.802C15.622 18.006 15.352 18.108 15.016 18.108C14.668 18.108 14.392 18.006 14.188 17.802C13.984 17.586 13.882 17.304 13.882 16.956V7.164H7.654V16.956C7.654 17.304 7.546 17.586 7.33 17.802C7.126 18.006 6.85 18.108 6.502 18.108ZM22.7016 18.144C21.8016 18.144 21.0096 17.958 20.3256 17.586C19.6536 17.214 19.1316 16.68 18.7596 15.984C18.3876 15.288 18.2016 14.478 18.2016 13.554C18.2016 12.63 18.3876 11.826 18.7596 11.142C19.1316 10.446 19.6536 9.912 20.3256 9.54C21.0096 9.168 21.8016 8.982 22.7016 8.982C23.6016 8.982 24.3876 9.168 25.0596 9.54C25.7436 9.912 26.2656 10.446 26.6256 11.142C26.9976 11.826 27.1836 12.63 27.1836 13.554C27.1836 14.478 26.9976 15.288 26.6256 15.984C26.2656 16.68 25.7436 17.214 25.0596 17.586C24.3876 17.958 23.6016 18.144 22.7016 18.144ZM22.6836 16.398C23.4156 16.398 23.9736 16.158 24.3576 15.678C24.7416 15.198 24.9336 14.49 24.9336 13.554C24.9336 12.63 24.7416 11.928 24.3576 11.448C23.9736 10.956 23.4216 10.71 22.7016 10.71C21.9816 10.71 21.4236 10.956 21.0276 11.448C20.6436 11.928 20.4516 12.63 20.4516 13.554C20.4516 14.49 20.6436 15.198 21.0276 15.678C21.4116 16.158 21.9636 16.398 22.6836 16.398ZM34.0991 8.982C34.8551 8.982 35.5271 9.174 36.1151 9.558C36.7151 9.942 37.1771 10.488 37.5011 11.196C37.8371 11.892 38.0051 12.696 38.0051 13.608C38.0051 14.52 37.8371 15.318 37.5011 16.002C37.1771 16.686 36.7211 17.214 36.1331 17.586C35.5451 17.958 34.8671 18.144 34.0991 18.144C33.4751 18.144 32.9171 18.012 32.4251 17.748C31.9331 17.484 31.5551 17.118 31.2911 16.65V20.322C31.2911 20.634 31.1891 20.88 30.9851 21.06C30.7811 21.24 30.5111 21.33 30.1751 21.33C29.8391 21.33 29.5631 21.234 29.3471 21.042C29.1431 20.85 29.0411 20.598 29.0411 20.286V10.08C29.0411 9.756 29.1371 9.498 29.3291 9.306C29.5331 9.114 29.8031 9.018 30.1391 9.018C30.4751 9.018 30.7451 9.114 30.9491 9.306C31.1531 9.498 31.2551 9.756 31.2551 10.08V10.53C31.5191 10.038 31.8971 9.66 32.3891 9.396C32.8931 9.12 33.4631 8.982 34.0991 8.982ZM33.5051 16.398C34.2131 16.398 34.7651 16.158 35.1611 15.678C35.5571 15.186 35.7551 14.496 35.7551 13.608C35.7551 12.696 35.5571 11.988 35.1611 11.484C34.7651 10.98 34.2131 10.728 33.5051 10.728C32.7851 10.728 32.2271 10.974 31.8311 11.466C31.4471 11.958 31.2551 12.66 31.2551 13.572C31.2551 14.472 31.4471 15.168 31.8311 15.66C32.2271 16.152 32.7851 16.398 33.5051 16.398ZM42.9309 18.108C42.5829 18.108 42.3069 18.012 42.1029 17.82C41.8989 17.628 41.7969 17.37 41.7969 17.046V10.89H39.7269C39.4629 10.89 39.2469 10.812 39.0789 10.656C38.9229 10.5 38.8449 10.296 38.8449 10.044C38.8449 9.792 38.9229 9.588 39.0789 9.432C39.2469 9.276 39.4629 9.198 39.7269 9.198H46.1169C46.3809 9.198 46.5909 9.276 46.7469 9.432C46.9149 9.588 46.9989 9.792 46.9989 10.044C46.9989 10.296 46.9149 10.5 46.7469 10.656C46.5909 10.812 46.3809 10.89 46.1169 10.89H44.0469V17.046C44.0469 17.37 43.9449 17.628 43.7409 17.82C43.5369 18.012 43.2669 18.108 42.9309 18.108ZM53.579 21.438C53.255 21.438 52.991 21.336 52.787 21.132C52.583 20.94 52.481 20.682 52.481 20.358V18.108C51.665 18.096 50.909 17.916 50.213 17.568C49.517 17.208 48.953 16.692 48.521 16.02C48.101 15.336 47.891 14.526 47.891 13.59C47.891 12.654 48.101 11.85 48.521 11.178C48.953 10.494 49.517 9.978 50.213 9.63C50.909 9.27 51.665 9.084 52.481 9.072V6.192C52.481 5.868 52.583 5.61 52.787 5.418C52.991 5.214 53.255 5.112 53.579 5.112C53.903 5.112 54.161 5.214 54.353 5.418C54.557 5.61 54.659 5.868 54.659 6.192V9.072C55.475 9.084 56.231 9.27 56.927 9.63C57.635 9.978 58.199 10.494 58.619 11.178C59.039 11.85 59.249 12.654 59.249 13.59C59.249 14.526 59.039 15.336 58.619 16.02C58.199 16.692 57.635 17.208 56.927 17.568C56.231 17.916 55.475 18.096 54.659 18.108V20.358C54.659 20.682 54.557 20.94 54.353 21.132C54.161 21.336 53.903 21.438 53.579 21.438ZM52.499 10.728C51.635 10.752 51.005 11.034 50.609 11.574C50.213 12.102 50.015 12.774 50.015 13.59C50.015 14.406 50.213 15.084 50.609 15.624C51.005 16.152 51.635 16.428 52.499 16.452V10.728ZM54.641 16.452C55.505 16.428 56.135 16.152 56.531 15.624C56.927 15.084 57.125 14.406 57.125 13.59C57.125 12.774 56.927 12.102 56.531 11.574C56.135 11.034 55.505 10.752 54.641 10.728V16.452ZM65.1176 18.144C64.2176 18.144 63.4256 17.958 62.7416 17.586C62.0696 17.214 61.5476 16.68 61.1756 15.984C60.8036 15.288 60.6176 14.478 60.6176 13.554C60.6176 12.63 60.8036 11.826 61.1756 11.142C61.5476 10.446 62.0696 9.912 62.7416 9.54C63.4256 9.168 64.2176 8.982 65.1176 8.982C66.0176 8.982 66.8036 9.168 67.4756 9.54C68.1596 9.912 68.6816 10.446 69.0416 11.142C69.4136 11.826 69.5996 12.63 69.5996 13.554C69.5996 14.478 69.4136 15.288 69.0416 15.984C68.6816 16.68 68.1596 17.214 67.4756 17.586C66.8036 17.958 66.0176 18.144 65.1176 18.144ZM65.0996 16.398C65.8316 16.398 66.3896 16.158 66.7736 15.678C67.1576 15.198 67.3496 14.49 67.3496 13.554C67.3496 12.63 67.1576 11.928 66.7736 11.448C66.3896 10.956 65.8376 10.71 65.1176 10.71C64.3976 10.71 63.8396 10.956 63.4436 11.448C63.0596 11.928 62.8676 12.63 62.8676 13.554C62.8676 14.49 63.0596 15.198 63.4436 15.678C63.8276 16.158 64.3796 16.398 65.0996 16.398ZM74.2015 11.79C74.2015 13.626 73.9735 15.03 73.5175 16.002C73.0615 16.962 72.4075 17.646 71.5555 18.054C71.4235 18.114 71.2675 18.144 71.0875 18.144C70.8235 18.144 70.6075 18.066 70.4395 17.91C70.2715 17.742 70.1875 17.532 70.1875 17.28C70.1875 17.1 70.2355 16.932 70.3315 16.776C70.4275 16.608 70.5715 16.47 70.7635 16.362C71.2795 16.074 71.6335 15.594 71.8255 14.922C72.0295 14.25 72.1315 13.224 72.1315 11.844V10.332C72.1195 9.984 72.2095 9.708 72.4015 9.504C72.5935 9.3 72.8575 9.198 73.1935 9.198H77.9455C78.2935 9.186 78.5695 9.276 78.7735 9.468C78.9775 9.66 79.0795 9.924 79.0795 10.26V17.046C79.0795 17.37 78.9775 17.628 78.7735 17.82C78.5695 18.012 78.2935 18.108 77.9455 18.108C77.6095 18.108 77.3395 18.012 77.1355 17.82C76.9315 17.628 76.8295 17.37 76.8295 17.046V10.89H74.2015V11.79ZM87.2212 9.882C87.4612 9.546 87.6772 9.318 87.8692 9.198C88.0732 9.078 88.3492 9.018 88.6972 9.018C89.0452 9.018 89.3212 9.114 89.5252 9.306C89.7412 9.498 89.8492 9.756 89.8492 10.08V17.01C89.8492 17.334 89.7472 17.598 89.5432 17.802C89.3512 18.006 89.0992 18.108 88.7872 18.108C88.4632 18.108 88.1992 18.006 87.9952 17.802C87.8032 17.598 87.7072 17.334 87.7072 17.01V11.934L83.8912 17.28C83.6632 17.604 83.4412 17.826 83.2252 17.946C83.0212 18.054 82.7632 18.108 82.4512 18.108C82.1032 18.108 81.8272 18.012 81.6232 17.82C81.4192 17.628 81.3172 17.364 81.3172 17.028V10.098C81.3172 9.774 81.4132 9.516 81.6052 9.324C81.8092 9.12 82.0732 9.018 82.3972 9.018C82.7092 9.018 82.9612 9.12 83.1532 9.324C83.3572 9.516 83.4592 9.774 83.4592 10.098V15.138L87.2212 9.882ZM96.143 18.144C95.243 18.144 94.451 17.958 93.767 17.586C93.095 17.214 92.573 16.68 92.201 15.984C91.829 15.288 91.643 14.478 91.643 13.554C91.643 12.63 91.829 11.826 92.201 11.142C92.573 10.446 93.095 9.912 93.767 9.54C94.451 9.168 95.243 8.982 96.143 8.982C97.043 8.982 97.829 9.168 98.501 9.54C99.185 9.912 99.707 10.446 100.067 11.142C100.439 11.826 100.625 12.63 100.625 13.554C100.625 14.478 100.439 15.288 100.067 15.984C99.707 16.68 99.185 17.214 98.501 17.586C97.829 17.958 97.043 18.144 96.143 18.144ZM96.125 16.398C96.857 16.398 97.415 16.158 97.799 15.678C98.183 15.198 98.375 14.49 98.375 13.554C98.375 12.63 98.183 11.928 97.799 11.448C97.415 10.956 96.863 10.71 96.143 10.71C95.423 10.71 94.865 10.956 94.469 11.448C94.085 11.928 93.893 12.63 93.893 13.554C93.893 14.49 94.085 15.198 94.469 15.678C94.853 16.158 95.405 16.398 96.125 16.398Z" fill="white"/>
</g>
<defs>
<filter id="filter0_d" x="0.368004" y="0.112" width="105.257" height="26.326" filterUnits="userSpaceOnUse" color-interpolation-filters="sRGB">
<feFlood flood-opacity="0" result="BackgroundImageFix"/>
<feColorMatrix in="SourceAlpha" type="matrix" values="0 0 0 0 0 0 0 0 0 0 0 0 0 0 0 0 0 0 127 0"/>
<feOffset/>
<feGaussianBlur stdDeviation="2.5"/>
<feColorMatrix type="matrix" values="0 0 0 0 0.25657 0 0 0 0 0.816667 0 0 0 0 0.749455 0 0 0 1 0"/>
<feBlend mode="normal" in2="BackgroundImageFix" result="effect1_dropShadow"/>
<feBlend mode="normal" in="SourceGraphic" in2="effect1_dropShadow" result="shape"/>
</filter>
</defs>
</svg>
