<svg width="0" height="0" class="hidden">
  <symbol fill="none" xmlns="http://www.w3.org/2000/svg" viewBox="0 0 68 74" id="arrow-slider-prev">
    <path d="M6.433 47.441c-8.115-4.596-8.115-16.286 0-20.882L49.585 2.114c8-4.53 17.914 1.248 17.914 10.442v48.888c0 9.194-9.915 14.973-17.914 10.441L6.431 47.441z" fill="#fff"></path>
  </symbol>
<symbol fill="none" xmlns="http://www.w3.org/2000/svg" viewBox="0 0 106 27" id="portfolio"><g filter="url(#filter0_d)"><path d="M6.502 18.108c-.348 0-.624-.102-.828-.306-.204-.216-.306-.504-.306-.864V6.444c0-.336.108-.606.324-.81.216-.216.492-.324.828-.324h8.496c.336 0 .606.108.81.324.216.204.324.474.324.81v10.512c0 .348-.108.63-.324.846-.204.204-.474.306-.81.306-.348 0-.624-.102-.828-.306-.204-.216-.306-.498-.306-.846V7.164H7.654v9.792c0 .348-.108.63-.324.846-.204.204-.48.306-.828.306zm16.2.036c-.9 0-1.692-.186-2.376-.558a3.876 3.876 0 01-1.566-1.602c-.372-.696-.558-1.506-.558-2.43 0-.924.186-1.728.558-2.412a3.876 3.876 0 011.566-1.602c.684-.372 1.476-.558 2.376-.558.9 0 1.686.186 2.358.558a3.737 3.737 0 011.566 1.602c.372.684.558 1.488.558 2.412 0 .924-.186 1.734-.558 2.43a3.737 3.737 0 01-1.566 1.602c-.672.372-1.458.558-2.358.558zm-.018-1.746c.732 0 1.29-.24 1.674-.72.384-.48.576-1.188.576-2.124 0-.924-.192-1.626-.576-2.106-.384-.492-.936-.738-1.656-.738-.72 0-1.278.246-1.674.738-.384.48-.576 1.182-.576 2.106 0 .936.192 1.644.576 2.124.384.48.936.72 1.656.72zm11.415-7.416c.756 0 1.428.192 2.016.576.6.384 1.062.93 1.386 1.638.336.696.504 1.5.504 2.412 0 .912-.168 1.71-.504 2.394-.324.684-.78 1.212-1.368 1.584-.588.372-1.266.558-2.034.558-.624 0-1.182-.132-1.674-.396a2.779 2.779 0 01-1.134-1.098v3.672c0 .312-.102.558-.306.738-.204.18-.474.27-.81.27-.336 0-.612-.096-.828-.288-.204-.192-.306-.444-.306-.756V10.08c0-.324.096-.582.288-.774.204-.192.474-.288.81-.288.336 0 .606.096.81.288.204.192.306.45.306.774v.45a2.72 2.72 0 011.134-1.134c.504-.276 1.074-.414 1.71-.414zm-.594 7.416c.708 0 1.26-.24 1.656-.72.396-.492.594-1.182.594-2.07 0-.912-.198-1.62-.594-2.124-.396-.504-.948-.756-1.656-.756-.72 0-1.278.246-1.674.738-.384.492-.576 1.194-.576 2.106 0 .9.192 1.596.576 2.088.396.492.954.738 1.674.738zm9.426 1.71c-.348 0-.624-.096-.828-.288-.204-.192-.306-.45-.306-.774V10.89h-2.07a.915.915 0 01-.648-.234.828.828 0 01-.234-.612c0-.252.078-.456.234-.612a.915.915 0 01.648-.234h6.39c.264 0 .474.078.63.234.168.156.252.36.252.612a.796.796 0 01-.252.612c-.156.156-.366.234-.63.234h-2.07v6.156c0 .324-.102.582-.306.774-.204.192-.474.288-.81.288zm10.648 3.33c-.324 0-.588-.102-.792-.306-.204-.192-.306-.45-.306-.774v-2.25a5.174 5.174 0 01-2.268-.54 4.369 4.369 0 01-1.692-1.548c-.42-.684-.63-1.494-.63-2.43 0-.936.21-1.74.63-2.412.432-.684.996-1.2 1.692-1.548a5.028 5.028 0 012.268-.558v-2.88c0-.324.102-.582.306-.774.204-.204.468-.306.792-.306s.582.102.774.306c.204.192.306.45.306.774v2.88a5.028 5.028 0 012.268.558 4.046 4.046 0 011.692 1.548c.42.672.63 1.476.63 2.412 0 .936-.21 1.746-.63 2.43a4.208 4.208 0 01-1.692 1.548 5.174 5.174 0 01-2.268.54v2.25c0 .324-.102.582-.306.774-.192.204-.45.306-.774.306zm-1.08-10.71c-.864.024-1.494.306-1.89.846-.396.528-.594 1.2-.594 2.016 0 .816.198 1.494.594 2.034.396.528 1.026.804 1.89.828v-5.724zm2.142 5.724c.864-.024 1.494-.3 1.89-.828.396-.54.594-1.218.594-2.034 0-.816-.198-1.488-.594-2.016-.396-.54-1.026-.822-1.89-.846v5.724zm10.477 1.692c-.9 0-1.692-.186-2.376-.558a3.876 3.876 0 01-1.566-1.602c-.372-.696-.558-1.506-.558-2.43 0-.924.186-1.728.558-2.412a3.876 3.876 0 011.566-1.602c.684-.372 1.476-.558 2.376-.558.9 0 1.686.186 2.358.558a3.737 3.737 0 011.566 1.602c.372.684.558 1.488.558 2.412 0 .924-.186 1.734-.558 2.43a3.737 3.737 0 01-1.566 1.602c-.672.372-1.458.558-2.358.558zm-.018-1.746c.732 0 1.29-.24 1.674-.72.384-.48.576-1.188.576-2.124 0-.924-.192-1.626-.576-2.106-.384-.492-.936-.738-1.656-.738-.72 0-1.278.246-1.674.738-.384.48-.576 1.182-.576 2.106 0 .936.192 1.644.576 2.124.384.48.936.72 1.656.72zm9.102-4.608c0 1.836-.228 3.24-.684 4.212-.457.96-1.11 1.644-1.963 2.052-.132.06-.288.09-.468.09a.915.915 0 01-.648-.234.855.855 0 01-.251-.63c0-.18.047-.348.144-.504a1.11 1.11 0 01.431-.414c.516-.288.87-.768 1.063-1.44.204-.672.306-1.698.306-3.078v-1.512c-.013-.348.078-.624.27-.828.192-.204.456-.306.791-.306h4.752c.349-.012.625.078.829.27.204.192.305.456.305.792v6.786c0 .324-.101.582-.305.774-.204.192-.48.288-.829.288-.335 0-.605-.096-.81-.288-.204-.192-.306-.45-.306-.774V10.89h-2.627v.9zm13.02-1.908c.24-.336.455-.564.647-.684.204-.12.48-.18.828-.18s.624.096.828.288c.216.192.324.45.324.774v6.93c0 .324-.102.588-.306.792-.192.204-.444.306-.756.306-.324 0-.588-.102-.792-.306-.192-.204-.288-.468-.288-.792v-5.076l-3.816 5.346c-.228.324-.45.546-.666.666-.204.108-.462.162-.774.162-.348 0-.624-.096-.828-.288-.204-.192-.306-.456-.306-.792v-6.93c0-.324.096-.582.288-.774.204-.204.468-.306.792-.306.312 0 .564.102.756.306.204.192.306.45.306.774v5.04l3.762-5.256zm8.921 8.262c-.9 0-1.692-.186-2.376-.558a3.876 3.876 0 01-1.566-1.602c-.372-.696-.558-1.506-.558-2.43 0-.924.186-1.728.558-2.412a3.876 3.876 0 011.566-1.602c.684-.372 1.476-.558 2.376-.558.9 0 1.686.186 2.358.558a3.737 3.737 0 011.566 1.602c.372.684.558 1.488.558 2.412 0 .924-.186 1.734-.558 2.43a3.737 3.737 0 01-1.566 1.602c-.672.372-1.458.558-2.358.558zm-.018-1.746c.732 0 1.29-.24 1.674-.72.384-.48.576-1.188.576-2.124 0-.924-.192-1.626-.576-2.106-.384-.492-.936-.738-1.656-.738-.72 0-1.278.246-1.674.738-.384.48-.576 1.182-.576 2.106 0 .936.192 1.644.576 2.124.384.48.936.72 1.656.72z" fill="#fff"></path></g><defs><filter id="filter0_d" x=".368" y=".112" width="105.257" height="26.326" filterUnits="userSpaceOnUse" color-interpolation-filters="sRGB"><feFlood flood-opacity="0" result="BackgroundImageFix"></feFlood><feColorMatrix in="SourceAlpha" values="0 0 0 0 0 0 0 0 0 0 0 0 0 0 0 0 0 0 127 0"></feColorMatrix><feOffset></feOffset><feGaussianBlur stdDeviation="2.5"></feGaussianBlur><feColorMatrix values="0 0 0 0 0.25657 0 0 0 0 0.816667 0 0 0 0 0.749455 0 0 0 1 0"></feColorMatrix><feBlend in2="BackgroundImageFix" result="effect1_dropShadow"></feBlend><feBlend in="SourceGraphic" in2="effect1_dropShadow" result="shape"></feBlend></filter></defs></symbol>
<symbol fill="none" xmlns="http://www.w3.org/2000/svg" viewBox="0 0 82 25" id="aboutme"><g filter="url(#filter0_d)"><path d="M12.02 19.162c-1.236 0-2.31-.264-3.222-.792-.9-.528-1.596-1.284-2.088-2.268-.492-.984-.738-2.136-.738-3.456 0-1.32.24-2.466.72-3.438.492-.984 1.194-1.74 2.106-2.268.912-.528 1.986-.792 3.222-.792s2.304.264 3.204.792c.912.528 1.608 1.284 2.088 2.268.492.972.738 2.118.738 3.438 0 1.32-.246 2.472-.738 3.456s-1.194 1.74-2.106 2.268c-.9.528-1.962.792-3.186.792zm0-1.854c1.164 0 2.07-.402 2.718-1.206.66-.804.99-1.956.99-3.456s-.33-2.646-.99-3.438c-.648-.804-1.554-1.206-2.718-1.206-1.176 0-2.094.402-2.754 1.206-.648.792-.972 1.938-.972 3.438 0 1.5.324 2.652.972 3.456.66.804 1.578 1.206 2.754 1.206zm12.353 1.836c-1.476 0-2.592-.48-3.348-1.44-.756-.96-1.134-2.256-1.134-3.888 0-1.32.126-2.412.378-3.276.264-.876.654-1.578 1.17-2.106.528-.54 1.212-.978 2.052-1.314.456-.192 1.032-.39 1.728-.594.78-.24 1.356-.426 1.728-.558.204-.06.366-.09.486-.09.264 0 .474.078.63.234a.783.783 0 01.234.576c0 .168-.06.342-.18.522a1.298 1.298 0 01-.504.432 7.337 7.337 0 01-1.044.45c-.396.132-.792.258-1.188.378-.504.144-.882.258-1.134.342-.888.288-1.542.714-1.962 1.278-.408.564-.636 1.386-.684 2.466a3.393 3.393 0 011.314-1.638 3.734 3.734 0 012.088-.612c1.236 0 2.196.378 2.88 1.134.684.756 1.026 1.824 1.026 3.204 0 .852-.186 1.62-.558 2.304a4.111 4.111 0 01-1.584 1.62c-.684.384-1.482.576-2.394.576zm0-1.746c.744 0 1.308-.252 1.692-.756.396-.516.594-1.158.594-1.926 0-.876-.192-1.53-.576-1.962-.384-.444-.906-.666-1.566-.666-.732 0-1.302.246-1.71.738-.396.48-.594 1.116-.594 1.908 0 .804.174 1.452.522 1.944.36.48.906.72 1.638.72zm10.403 1.746c-.9 0-1.692-.186-2.376-.558a3.876 3.876 0 01-1.566-1.602c-.372-.696-.558-1.506-.558-2.43 0-.924.186-1.728.558-2.412A3.876 3.876 0 0132.4 10.54c.684-.372 1.476-.558 2.376-.558.9 0 1.686.186 2.358.558a3.737 3.737 0 011.566 1.602c.372.684.558 1.488.558 2.412 0 .924-.186 1.734-.558 2.43a3.737 3.737 0 01-1.566 1.602c-.672.372-1.458.558-2.358.558zm-.018-1.746c.732 0 1.29-.24 1.674-.72.384-.48.576-1.188.576-2.124 0-.924-.192-1.626-.576-2.106-.384-.492-.936-.738-1.656-.738-.72 0-1.278.246-1.674.738-.384.48-.576 1.182-.576 2.106 0 .936.192 1.644.576 2.124.384.48.936.72 1.656.72zm19.83-7.38c.348 0 .624.096.828.288.204.192.306.45.306.774v6.984c0 .3-.096.552-.288.756a1 1 0 01-.738.288c-.3 0-.552-.096-.756-.288a1.061 1.061 0 01-.288-.756l.018-4.536-1.8 3.348a1.348 1.348 0 01-.432.468c-.18.108-.378.162-.594.162-.456 0-.804-.21-1.044-.63L48 13.528l.018 4.536c0 .3-.102.552-.306.756a1 1 0 01-.738.288 1 1 0 01-.738-.288 1.061 1.061 0 01-.288-.756v-6.912c0-.348.09-.624.27-.828.192-.204.456-.306.792-.306.324 0 .594.054.81.162.216.096.408.306.576.63l2.448 4.626 2.358-4.482c.192-.348.384-.588.576-.72.204-.144.474-.216.81-.216zm4.482 9.09c-.336 0-.606-.096-.81-.288-.204-.192-.306-.45-.306-.774V11.08c0-.324.102-.582.306-.774.204-.192.474-.288.81-.288.348 0 .624.096.828.288.204.192.306.45.306.774v2.538h3.852V11.08c0-.324.102-.582.306-.774.204-.192.474-.288.81-.288.348 0 .624.096.828.288.204.192.306.45.306.774l.018 6.876c0 .348-.108.63-.324.846-.204.204-.474.306-.81.306-.348 0-.624-.102-.828-.306-.204-.216-.306-.498-.306-.846v-2.592h-3.852v2.682c0 .324-.102.582-.306.774-.204.192-.48.288-.828.288zm16.503-2.52c.205 0 .367.078.487.234.132.156.197.366.197.63 0 .372-.222.684-.666.936-.407.228-.87.414-1.385.558a5.957 5.957 0 01-1.477.198c-1.415 0-2.537-.408-3.365-1.224-.829-.816-1.243-1.932-1.243-3.348 0-.9.18-1.698.54-2.394a3.945 3.945 0 011.513-1.62c.66-.384 1.403-.576 2.231-.576.793 0 1.483.174 2.07.522a3.54 3.54 0 011.369 1.476c.324.636.486 1.386.486 2.25 0 .516-.228.774-.684.774h-5.31c.072.828.305 1.44.701 1.836.396.384.972.576 1.728.576.385 0 .72-.048 1.008-.144.3-.096.636-.228 1.008-.396.36-.192.624-.288.792-.288zm-3.113-5.022c-.612 0-1.104.192-1.476.576-.36.384-.576.936-.648 1.656h4.067c-.024-.732-.204-1.284-.54-1.656-.335-.384-.803-.576-1.403-.576z" fill="#fff"></path></g><defs><filter id="filter0_d" x=".972" y=".878" width="80.358" height="23.284" filterUnits="userSpaceOnUse" color-interpolation-filters="sRGB"><feFlood flood-opacity="0" result="BackgroundImageFix"></feFlood><feColorMatrix in="SourceAlpha" values="0 0 0 0 0 0 0 0 0 0 0 0 0 0 0 0 0 0 127 0"></feColorMatrix><feOffset></feOffset><feGaussianBlur stdDeviation="2.5"></feGaussianBlur><feColorMatrix values="0 0 0 0 0.25657 0 0 0 0 0.816667 0 0 0 0 0.749455 0 0 0 1 0"></feColorMatrix><feBlend in2="BackgroundImageFix" result="effect1_dropShadow"></feBlend><feBlend in="SourceGraphic" in2="effect1_dropShadow" result="shape"></feBlend></filter></defs></symbol>
<symbol fill="none" xmlns="http://www.w3.org/2000/svg" viewBox="0 0 91 24" id="contacts-nav"><g filter="url(#filter0_d)"><path d="M6.502 18.108c-.348 0-.624-.102-.828-.306-.204-.216-.306-.504-.306-.864V6.354c0-.348.102-.624.306-.828.216-.216.492-.324.828-.324.348 0 .624.108.828.324.216.204.324.48.324.828v4.266h1.548l4.032-4.968c.24-.288.522-.432.846-.432.264 0 .492.096.684.288.204.192.306.42.306.684 0 .252-.09.486-.27.702l-3.42 4.158c.432.156.78.336 1.044.54.276.204.522.462.738.774.228.312.522.78.882 1.404l1.458 2.61c.12.204.18.414.18.63 0 .3-.114.558-.342.774a1.066 1.066 0 01-.756.306c-.396 0-.714-.21-.954-.63l-1.836-3.276c-.348-.624-.696-1.062-1.044-1.314-.348-.252-.852-.378-1.512-.378H7.654v4.446c0 .348-.108.63-.324.846-.204.216-.48.324-.828.324zm14.97.036c-.9 0-1.693-.186-2.377-.558a3.876 3.876 0 01-1.566-1.602c-.372-.696-.558-1.506-.558-2.43 0-.924.186-1.728.558-2.412a3.876 3.876 0 011.566-1.602c.684-.372 1.476-.558 2.376-.558.9 0 1.686.186 2.358.558a3.737 3.737 0 011.566 1.602c.372.684.558 1.488.558 2.412 0 .924-.186 1.734-.558 2.43a3.737 3.737 0 01-1.566 1.602c-.672.372-1.458.558-2.358.558zm-.019-1.746c.732 0 1.29-.24 1.674-.72.384-.48.576-1.188.576-2.124 0-.924-.192-1.626-.576-2.106-.384-.492-.936-.738-1.656-.738-.72 0-1.278.246-1.674.738-.384.48-.576 1.182-.576 2.106 0 .936.192 1.644.576 2.124.384.48.936.72 1.656.72zm7.42 1.71c-.336 0-.606-.096-.81-.288-.204-.192-.306-.45-.306-.774V10.08c0-.324.102-.582.306-.774.204-.192.474-.288.81-.288.348 0 .624.096.828.288.204.192.306.45.306.774v2.538h3.852V10.08c0-.324.102-.582.306-.774.204-.192.474-.288.81-.288.348 0 .624.096.828.288.204.192.306.45.306.774l.018 6.876c0 .348-.108.63-.324.846-.204.204-.474.306-.81.306-.348 0-.624-.102-.828-.306-.204-.216-.306-.498-.306-.846v-2.592h-3.852v2.682c0 .324-.102.582-.306.774-.204.192-.48.288-.828.288zm12.67 0c-.349 0-.625-.096-.829-.288-.204-.192-.306-.45-.306-.774V10.89h-2.07a.915.915 0 01-.648-.234.828.828 0 01-.234-.612c0-.252.078-.456.234-.612a.915.915 0 01.648-.234h6.39c.264 0 .474.078.63.234.168.156.252.36.252.612a.796.796 0 01-.252.612c-.156.156-.366.234-.63.234h-2.07v6.156c0 .324-.102.582-.306.774-.204.192-.474.288-.81.288zm9.138-9.126c1.224 0 2.13.306 2.718.918.6.6.9 1.518.9 2.754v4.392c0 .324-.096.582-.288.774-.192.18-.456.27-.792.27-.312 0-.57-.096-.774-.288-.192-.192-.288-.444-.288-.756v-.396a2.335 2.335 0 01-.972 1.098c-.432.264-.936.396-1.512.396-.588 0-1.122-.12-1.602-.36a2.85 2.85 0 01-1.134-.99 2.501 2.501 0 01-.414-1.404c0-.648.162-1.158.486-1.53.336-.372.876-.642 1.62-.81.744-.168 1.77-.252 3.078-.252h.45v-.414c0-.588-.126-1.014-.378-1.278-.252-.276-.66-.414-1.224-.414-.348 0-.702.054-1.062.162-.36.096-.786.24-1.278.432-.312.156-.54.234-.684.234a.704.704 0 01-.54-.234c-.132-.156-.198-.36-.198-.612a.92.92 0 01.144-.522c.108-.156.282-.3.522-.432a5.88 5.88 0 011.494-.54 7.875 7.875 0 011.728-.198zm-.558 7.542c.6 0 1.086-.198 1.458-.594.384-.408.576-.93.576-1.566v-.378h-.324c-.804 0-1.428.036-1.872.108-.444.072-.762.198-.954.378-.192.18-.288.426-.288.738 0 .384.132.702.396.954.276.24.612.36 1.008.36zm11.611-3.348c.42.156.756.366 1.008.63.264.264.57.708.918 1.332l.792 1.368c.108.192.162.378.162.558a.956.956 0 01-.342.738 1.126 1.126 0 01-.774.288c-.408 0-.72-.192-.936-.576l-1.134-2.016c-.252-.42-.498-.714-.738-.882-.24-.168-.588-.252-1.044-.252h-.702v2.664c0 .336-.102.6-.306.792-.204.192-.48.288-.828.288s-.624-.096-.828-.288c-.192-.192-.288-.456-.288-.792V10.08c0-.324.102-.582.306-.774.204-.192.474-.288.81-.288.348 0 .624.096.828.288.204.192.306.45.306.774v2.61h.81l2.574-3.204c.24-.312.522-.468.846-.468.252 0 .468.09.648.27.18.18.27.396.27.648s-.096.498-.288.738l-2.07 2.502zm7.81 4.932c-.348 0-.624-.096-.828-.288-.204-.192-.306-.45-.306-.774V10.89h-2.07a.915.915 0 01-.648-.234.828.828 0 01-.234-.612c0-.252.078-.456.234-.612a.915.915 0 01.648-.234h6.39c.264 0 .474.078.63.234.168.156.252.36.252.612a.796.796 0 01-.252.612c-.156.156-.366.234-.63.234h-2.07v6.156c0 .324-.102.582-.306.774-.204.192-.474.288-.81.288zM76.07 18c-.348.012-.624-.078-.828-.27-.204-.192-.306-.456-.306-.792V10.08c0-.324.102-.582.306-.774.204-.192.474-.288.81-.288.348 0 .624.096.828.288.204.192.306.45.306.774v2.034H78.5c1.08 0 1.92.222 2.52.666.6.432.9 1.158.9 2.178 0 .648-.168 1.206-.504 1.674a2.97 2.97 0 01-1.296 1.026 4.267 4.267 0 01-1.71.342h-2.34zm8.1.108c-.348 0-.624-.096-.828-.288-.204-.192-.306-.45-.306-.774V10.08c0-.324.102-.582.306-.774.204-.192.48-.288.828-.288.336 0 .606.096.81.288.204.192.306.45.306.774v6.966c0 .324-.102.582-.306.774-.204.192-.474.288-.81.288zm-6.228-1.656c.48 0 .894-.114 1.242-.342.348-.228.522-.594.522-1.098 0-.54-.162-.9-.486-1.08-.312-.18-.738-.27-1.278-.27h-.792v2.79h.792z" fill="#fff"></path></g><defs><filter id="filter0_d" x=".368" y=".202" width="89.918" height="22.942" filterUnits="userSpaceOnUse" color-interpolation-filters="sRGB"><feFlood flood-opacity="0" result="BackgroundImageFix"></feFlood><feColorMatrix in="SourceAlpha" values="0 0 0 0 0 0 0 0 0 0 0 0 0 0 0 0 0 0 127 0"></feColorMatrix><feOffset></feOffset><feGaussianBlur stdDeviation="2.5"></feGaussianBlur><feColorMatrix values="0 0 0 0 0.25657 0 0 0 0 0.816667 0 0 0 0 0.749455 0 0 0 1 0"></feColorMatrix><feBlend in2="BackgroundImageFix" result="effect1_dropShadow"></feBlend><feBlend in="SourceGraphic" in2="effect1_dropShadow" result="shape"></feBlend></filter></defs></symbol>
</svg>