<svg width="119" height="163" viewBox="0 0 119 163" fill="none" xmlns="http://www.w3.org/2000/svg">
<g filter="url(#filter0_d)">
<path d="M49 97C49.5523 97 50 96.5523 50 96C50 95.4477 49.5523 95 49 95V97ZM58 95C57.4477 95 57 95.4477 57 96C57 96.5523 57.4477 97 58 97V95ZM42 84.5C41.4477 84.5 41 84.9477 41 85.5C41 86.0523 41.4477 86.5 42 86.5V84.5ZM16 101C16 100.448 15.5523 100 15 100C14.4477 100 14 100.448 14 101H16ZM104 80C104 79.4477 103.552 79 103 79C102.448 79 102 79.4477 102 80H104ZM103.5 84C102.948 84 102.5 84.4477 102.5 85C102.5 85.5523 102.948 86 103.5 86V84ZM14.5 92.5C14.5 93.0523 14.9477 93.5 15.5 93.5C16.0523 93.5 16.5 93.0523 16.5 92.5H14.5ZM102 71C102 71.5523 102.448 72 103 72C103.552 72 104 71.5523 104 71H102ZM16.8508 39.3811C16.7852 39.9294 17.1764 40.4272 17.7248 40.4929C18.2732 40.5586 18.771 40.1673 18.8367 39.6189L16.8508 39.3811ZM25.2638 6.66559L24.3214 6.33118L25.2638 6.66559ZM15.524 54.3466L16.512 54.5009L15.524 54.3466ZM85.7889 32.9223L86.6833 33.3695L85.7889 32.9223ZM100.328 37.3517L101.317 37.2033L100.328 37.3517ZM97.8964 21.1423L96.9074 21.2907L97.8964 21.1423ZM96.4239 16.0544L97.3392 15.6516L96.4239 16.0544ZM17.8679 39.3456L16.8799 39.1912L17.8679 39.3456ZM32.6026 32.8079L31.654 33.1241L32.6026 32.8079ZM92.2628 6.59726L93.1781 6.19452L92.2628 6.59726ZM102.972 52.8342L103.958 52.6672L102.972 52.8342ZM36 145.5H82.5V143.5H36V145.5ZM84.5 143.5V134.5H82.5V143.5H84.5ZM77 156V145H75V156H77ZM43 158H75V156H43V158ZM34 134.5V139.5H36V134.5H34ZM34 139.5V143.5H36V139.5H34ZM41 145V151H43V145H41ZM41 151V156H43V151H41ZM26.5 134.5H92V132.5H26.5V134.5ZM92 95H58V97H92V95ZM49 95H26.5V97H49V95ZM24.5 97V132.5H26.5V97H24.5ZM77 84.5H42V86.5H77V84.5ZM41 69V96H43V69H41ZM75 58.5V96H77V58.5H75ZM75 36V58.5H77V36H75ZM74 36H75V34H74V36ZM60.5 29.5H72V27.5H60.5V29.5ZM72 29.5V34H74V29.5H72ZM41 35.5V69H43V35.5H41ZM44 33.5H43V35.5H44V33.5ZM60.5 27.5H46V29.5H60.5V27.5ZM44 29.5V33.5H46V29.5H44ZM42 37.5H18.8559V39.5H42V37.5ZM99.3388 37.5H76V39.5H99.3388V37.5ZM14 101V108H16V101H14ZM22 116H25V114H22V116ZM102 80V109.5H104V80H102ZM97 114.5H92.5V116.5H97V114.5ZM94 132.5V116H92V132.5H94ZM94 116V97H92V116H94ZM103.5 86H110.5V84H103.5V86ZM111.5 87V101.5H113.5V87H111.5ZM110.5 102.5H103.5V104.5H110.5V102.5ZM14.5 65H7V67H14.5V65ZM5 67V83H7V67H5ZM7 85H15V83H7V85ZM83.8944 38.9472L86.6833 33.3695L84.8944 32.4751L82.1056 38.0528L83.8944 38.9472ZM87 32.0279V16.5H85V32.0279H87ZM85 14.5H33.5V16.5H85V14.5ZM31.5 16.5V32.1754H33.5V16.5H31.5ZM31.654 33.1241L33.5513 38.8162L35.4487 38.1838L33.5513 32.4917L31.654 33.1241ZM14.5 54.6553V92.5H16.5V54.6553H14.5ZM16.8799 39.1912L15.762 46.3456L17.738 46.6544L18.8559 39.5L16.8799 39.1912ZM15.762 46.3456L14.536 54.1922L16.512 54.5009L17.738 46.6544L15.762 46.3456ZM99.389 37.667L101.986 53.0012L103.958 52.6672L101.361 37.333L99.389 37.667ZM102 53.1682V71H104V53.1682H102ZM101.317 37.2033L98.8853 20.994L96.9074 21.2907L99.3388 37.5L101.317 37.2033ZM97.3392 15.6516L93.1781 6.19452L91.3475 7L95.5086 16.4571L97.3392 15.6516ZM91.3475 5H26.2063V7H91.3475V5ZM24.3214 6.33118L19.8022 19.0671L21.6871 19.7359L26.2063 7L24.3214 6.33118ZM18.7423 23.5919L16.8508 39.3811L18.8367 39.6189L20.7281 23.8298L18.7423 23.5919ZM19.8022 19.0671C19.2826 20.5315 18.9271 22.0491 18.7423 23.5919L20.7281 23.8298C20.8953 22.4339 21.2169 21.0609 21.6871 19.7359L19.8022 19.0671ZM26.2063 5C25.3595 5 24.6046 5.5332 24.3214 6.33118L26.2063 7L26.2063 7V5ZM16.5 54.6553C16.5 54.6036 16.504 54.552 16.512 54.5009L14.536 54.1922C14.512 54.3454 14.5 54.5002 14.5 54.6553H16.5ZM33.5 14.5C32.3954 14.5 31.5 15.3954 31.5 16.5H33.5L33.5 16.5V14.5ZM86.6833 33.3695C86.8916 32.9529 87 32.4936 87 32.0279H85C85 32.1831 84.9639 32.3362 84.8944 32.4751L86.6833 33.3695ZM111.5 101.5C111.5 102.052 111.052 102.5 110.5 102.5V104.5C112.157 104.5 113.5 103.157 113.5 101.5H111.5ZM110.5 86C111.052 86 111.5 86.4477 111.5 87H113.5C113.5 85.3431 112.157 84 110.5 84V86ZM99.3388 39.5C100.562 39.5 101.498 38.4125 101.317 37.2033L99.3388 37.5L99.3388 37.5V39.5ZM46 27.5C44.8954 27.5 44 28.3954 44 29.5H46L46 29.5V27.5ZM82.5 145.5C83.6046 145.5 84.5 144.605 84.5 143.5H82.5L82.5 143.5V145.5ZM87 16.5C87 15.3954 86.1046 14.5 85 14.5V16.5L85 16.5H87ZM44 35.5C45.1046 35.5 46 34.6046 46 33.5H44L44 33.5V35.5ZM102 109.5C102 112.261 99.7614 114.5 97 114.5V116.5C100.866 116.5 104 113.366 104 109.5H102ZM98.8853 20.994C98.6091 19.1525 98.0892 17.356 97.3392 15.6516L95.5086 16.4571C96.1871 17.9992 96.6575 19.6246 96.9074 21.2907L98.8853 20.994ZM26.5 95C25.3954 95 24.5 95.8954 24.5 97H26.5L26.5 97V95ZM18.8559 37.5C17.8705 37.5 17.032 38.2177 16.8799 39.1912L18.8559 39.5L18.8559 39.5V37.5ZM31.5 32.1754C31.5 32.4979 31.552 32.8182 31.654 33.1241L33.5513 32.4917C33.5173 32.3897 33.5 32.2829 33.5 32.1754H31.5ZM75 156L75 156V158C76.1046 158 77 157.105 77 156H75ZM36 143.5L36 143.5H34C34 144.605 34.8954 145.5 36 145.5V143.5ZM72 29.5L72 29.5H74C74 28.3954 73.1046 27.5 72 27.5V29.5ZM93.1781 6.19452C92.8587 5.46861 92.1406 5 91.3475 5V7L91.3475 7L93.1781 6.19452ZM92 97L92 97H94C94 95.8954 93.1046 95 92 95V97ZM43 35.5L43 35.5V33.5C41.8954 33.5 41 34.3954 41 35.5H43ZM7 65C5.89543 65 5 65.8954 5 67H7L7 67V65ZM77 36C77 34.8954 76.1046 34 75 34V36L75 36H77ZM14 108C14 112.418 17.5817 116 22 116V114C18.6863 114 16 111.314 16 108H14ZM101.986 53.0012C101.995 53.0563 102 53.1122 102 53.1682H104C104 53.0003 103.986 52.8327 103.958 52.6672L101.986 53.0012ZM26.5 132.5L26.5 132.5H24.5C24.5 133.605 25.3954 134.5 26.5 134.5V132.5ZM43 156L43 156H41C41 157.105 41.8954 158 43 158V156ZM5 83C5 84.1046 5.89543 85 7 85V83L7 83H5ZM74 34L74 34H72C72 35.1046 72.8954 36 74 36V34ZM92 134.5C93.1046 134.5 94 133.605 94 132.5H92L92 132.5V134.5Z" fill="white"/>
</g>
<line x1="22.5" y1="59.5" x2="34.5" y2="59.5" stroke="white" stroke-width="3" stroke-linecap="round"/>
<line x1="49.5" y1="39.5" x2="68.5" y2="39.5" stroke="white" stroke-width="3" stroke-linecap="round"/>
<line x1="83.5" y1="59.5" x2="95.5" y2="59.5" stroke="white" stroke-width="3" stroke-linecap="round"/>
<mask id="path-5-inside-1" fill="white">
<rect x="33" y="104" width="28" height="22" rx="2"/>
</mask>
<rect x="33" y="104" width="28" height="22" rx="2" stroke="white" stroke-width="6" mask="url(#path-5-inside-1)"/>
<rect x="65" y="104" width="6" height="4" rx="2" fill="white"/>
<rect x="73" y="104" width="6" height="4" rx="2" fill="white"/>
<rect x="81" y="104" width="6" height="4" rx="2" fill="white"/>
<rect x="81" y="113" width="6" height="4" rx="2" fill="white"/>
<rect x="73" y="113" width="6" height="4" rx="2" fill="white"/>
<rect x="65" y="113" width="6" height="4" rx="2" fill="white"/>
<rect x="65" y="122" width="6" height="4" rx="2" fill="white"/>
<rect x="73" y="122" width="6" height="4" rx="2" fill="white"/>
<rect x="81" y="122" width="6" height="4" rx="2" fill="white"/>
<circle cx="59" cy="59" r="9.5" stroke="white" stroke-width="3"/>
<circle cx="59" cy="59" r="3" fill="white"/>
<defs>
<filter id="filter0_d" x="0" y="0" width="118.5" height="163" filterUnits="userSpaceOnUse" color-interpolation-filters="sRGB">
<feFlood flood-opacity="0" result="BackgroundImageFix"/>
<feColorMatrix in="SourceAlpha" type="matrix" values="0 0 0 0 0 0 0 0 0 0 0 0 0 0 0 0 0 0 127 0"/>
<feOffset/>
<feGaussianBlur stdDeviation="2.5"/>
<feColorMatrix type="matrix" values="0 0 0 0 0.25657 0 0 0 0 0.816667 0 0 0 0 0.749455 0 0 0 0.5 0"/>
<feBlend mode="normal" in2="BackgroundImageFix" result="effect1_dropShadow"/>
<feBlend mode="normal" in="SourceGraphic" in2="effect1_dropShadow" result="shape"/>
</filter>
</defs>
</svg>
